{
    "asset": {
        "generator": "COLLADA2GLTF",
        "version": "2.0"
    },
    "scenes": [
        {
            "nodes": [
                0
            ]
        }
    ],
    "scene": 0,
    "nodes": [
        {
            "children": [
                8,
                7,
                6,
                5,
                4,
                3,
                2,
                1
            ],
            "matrix": [
                1.0,
                0.0,
                0.0,
                0.0,
                0.0,
                0.0,
                -1.0,
                0.0,
                0.0,
                1.0,
                0.0,
                0.0,
                0.0,
                0.0,
                0.0,
                1.0
            ],
            "name": "Z_UP"
        },
        {
            "mesh": 0,
            "matrix": [
                0.0,
                -1.0,
                0.0,
                0.0,
                1.0,
                0.0,
                0.0,
                0.0,
                0.0,
                0.0,
                1.0,
                0.0,
                0.0,
                0.0,
                0.0,
                1.0
            ],
            "name": "CockpitWIndow.001"
        },
        {
            "mesh": 1,
            "matrix": [
                0.0,
                -1.0,
                0.0,
                0.0,
                1.0,
                0.0,
                0.0,
                0.0,
                0.0,
                0.0,
                1.0,
                0.0,
                0.0,
                0.0,
                0.0,
                1.0
            ],
            "name": "Core.002"
        },
        {
            "mesh": 2,
            "matrix": [
                0.0,
                -1.0,
                0.0,
                0.0,
                1.0,
                0.0,
                0.0,
                0.0,
                0.0,
                0.0,
                1.0,
                0.0,
                0.0,
                0.0,
                0.0,
                1.0
            ],
            "name": "OuterSphereExaust02.001"
        },
        {
            "mesh": 3,
            "matrix": [
                0.0,
                -0.4000000059604645,
                0.0,
                0.0,
                0.4000000059604645,
                0.0,
                0.0,
                0.0,
                0.0,
                0.0,
                1.0,
                0.0,
                1.0947450399398804,
                2.065285921096802,
                2.2160520553588869,
                1.0
            ],
            "name": "PipeLeft.001"
        },
        {
            "mesh": 4,
            "matrix": [
                0.0,
                -1.0,
                0.0,
                0.0,
                0.25,
                0.0,
                0.0,
                0.0,
                0.0,
                0.0,
                0.25,
                0.0,
                1.6757889986038209,
                -1.0,
                3.5,
                1.0
            ],
            "name": "BladeMount.001"
        },
        {
            "mesh": 5,
            "matrix": [
                0.0,
                -1.0,
                0.0,
                0.0,
                1.0,
                0.0,
                0.0,
                0.0,
                0.0,
                0.0,
                1.0,
                0.0,
                0.0,
                0.0,
                0.0,
                1.0
            ],
            "name": "Blades.001"
        },
        {
            "mesh": 6,
            "matrix": [
                0.0,
                -1.0,
                0.0,
                0.0,
                1.0,
                0.0,
                0.0,
                0.0,
                0.0,
                0.0,
                1.0,
                0.0,
                0.0,
                0.0,
                0.0,
                1.0
            ],
            "name": "ExhaustGrid Secondary.001"
        },
        {
            "mesh": 7,
            "matrix": [
                0.0,
                -1.0,
                0.0,
                0.0,
                1.0,
                0.0,
                0.0,
                0.0,
                0.0,
                0.0,
                1.0,
                0.0,
                0.0,
                0.0,
                0.0,
                1.0
            ],
            "name": "ExhaustGridMainVertical.001"
        }
    ],
    "meshes": [
        {
            "primitives": [
                {
                    "attributes": {
                        "NORMAL": 1,
                        "POSITION": 2,
                        "TEXCOORD_0": 3
                    },
                    "indices": 0,
                    "mode": 4
                }
            ],
            "name": "Icosphere.004"
        },
        {
            "primitives": [
                {
                    "attributes": {
                        "NORMAL": 5,
                        "POSITION": 6,
                        "TEXCOORD_0": 7
                    },
                    "indices": 4,
                    "mode": 4
                }
            ],
            "name": "Icosphere.005"
        },
        {
            "primitives": [
                {
                    "attributes": {
                        "NORMAL": 9,
                        "POSITION": 10,
                        "TEXCOORD_0": 11
                    },
                    "indices": 8,
                    "mode": 4
                }
            ],
            "name": "Sphere.009"
        },
        {
            "primitives": [
                {
                    "attributes": {
                        "NORMAL": 13,
                        "POSITION": 14,
                        "TEXCOORD_0": 15
                    },
                    "indices": 12,
                    "mode": 4
                }
            ],
            "name": "Cylinder.002"
        },
        {
            "primitives": [
                {
                    "attributes": {
                        "NORMAL": 17,
                        "POSITION": 18,
                        "TEXCOORD_0": 19
                    },
                    "indices": 16,
                    "mode": 4
                }
            ],
            "name": "Cube.012"
        },
        {
            "primitives": [
                {
                    "attributes": {
                        "NORMAL": 21,
                        "POSITION": 22,
                        "TEXCOORD_0": 23
                    },
                    "indices": 20,
                    "mode": 4
                }
            ],
            "name": "Sphere.018"
        },
        {
            "primitives": [
                {
                    "attributes": {
                        "NORMAL": 25,
                        "POSITION": 26,
                        "TEXCOORD_0": 27
                    },
                    "indices": 24,
                    "mode": 4
                }
            ],
            "name": "Sphere.019"
        },
        {
            "primitives": [
                {
                    "attributes": {
                        "NORMAL": 29,
                        "POSITION": 30,
                        "TEXCOORD_0": 31
                    },
                    "indices": 28,
                    "mode": 4
                }
            ],
            "name": "Sphere.013"
        }
    ],
    "accessors": [
        {
            "bufferView": 0,
            "byteOffset": 0,
            "componentType": 5123,
            "count": 156,
            "max": [
                101
            ],
            "min": [
                0
            ],
            "type": "SCALAR"
        },
        {
            "bufferView": 1,
            "byteOffset": 0,
            "componentType": 5126,
            "count": 102,
            "max": [
                0.9920774102211,
                1.0,
                1.0
            ],
            "min": [
                -0.0000010720300451794174,
                -1.0,
                -1.0
            ],
            "type": "VEC3"
        },
        {
            "bufferView": 1,
            "byteOffset": 1224,
            "componentType": 5126,
            "count": 102,
            "max": [
                3.804230928421021,
                1.531499981880188,
                2.0
            ],
            "min": [
                2.956904888153076,
                -1.531499981880188,
                -2.0
            ],
            "type": "VEC3"
        },
        {
            "bufferView": 2,
            "byteOffset": 0,
            "componentType": 5126,
            "count": 102,
            "max": [
                0.6363630294799805,
                0.7638089656829834
            ],
            "min": [
                0.5669080018997192,
                0.6782345771789551
            ],
            "type": "VEC2"
        },
        {
            "bufferView": 0,
            "byteOffset": 312,
            "componentType": 5123,
            "count": 1656,
            "max": [
                580
            ],
            "min": [
                0
            ],
            "type": "SCALAR"
        },
        {
            "bufferView": 1,
            "byteOffset": 2448,
            "componentType": 5126,
            "count": 581,
            "max": [
                0.9999905824661256,
                1.0,
                1.0
            ],
            "min": [
                -1.0,
                -1.0,
                -1.0
            ],
            "type": "VEC3"
        },
        {
            "bufferView": 1,
            "byteOffset": 9420,
            "componentType": 5126,
            "count": 581,
            "max": [
                3.804230928421021,
                1.531499981880188,
                2.0
            ],
            "min": [
                -2.9136440753936769,
                -1.531499981880188,
                -2.0
            ],
            "type": "VEC3"
        },
        {
            "bufferView": 2,
            "byteOffset": 816,
            "componentType": 5126,
            "count": 581,
            "max": [
                0.6363630294799805,
                1.0
            ],
            "min": [
                0.0,
                0.4707186818122864
            ],
            "type": "VEC2"
        },
        {
            "bufferView": 0,
            "byteOffset": 3624,
            "componentType": 5123,
            "count": 6816,
            "max": [
                1139
            ],
            "min": [
                0
            ],
            "type": "SCALAR"
        },
        {
            "bufferView": 1,
            "byteOffset": 16392,
            "componentType": 5126,
            "count": 1140,
            "max": [
                0.8692799210548401,
                1.0,
                0.9131836295127868
            ],
            "min": [
                -0.9925974011421204,
                -1.0,
                -0.9131836295127868
            ],
            "type": "VEC3"
        },
        {
            "bufferView": 1,
            "byteOffset": 30072,
            "componentType": 5126,
            "count": 1140,
            "max": [
                3.67673397064209,
                3.9837160110473635,
                3.6951088905334474
            ],
            "min": [
                -3.67673397064209,
                -3.9837160110473635,
                -3.6951088905334474
            ],
            "type": "VEC3"
        },
        {
            "bufferView": 2,
            "byteOffset": 5464,
            "componentType": 5126,
            "count": 1140,
            "max": [
                0.7500005960464478,
                0.4999161958694458
            ],
            "min": [
                0.562879204750061,
                0.1250693202018738
            ],
            "type": "VEC2"
        },
        {
            "bufferView": 0,
            "byteOffset": 17256,
            "componentType": 5123,
            "count": 660,
            "max": [
                600
            ],
            "min": [
                0
            ],
            "type": "SCALAR"
        },
        {
            "bufferView": 1,
            "byteOffset": 43752,
            "componentType": 5126,
            "count": 601,
            "max": [
                0.9807854294776917,
                1.0,
                0.9968497157096864
            ],
            "min": [
                -0.9807854294776917,
                -0.9807854294776917,
                -1.0
            ],
            "type": "VEC3"
        },
        {
            "bufferView": 1,
            "byteOffset": 50964,
            "componentType": 5126,
            "count": 601,
            "max": [
                0.5000017285346985,
                1.1062649488449097,
                0.4056673049926758
            ],
            "min": [
                -0.5,
                -0.5,
                -0.5
            ],
            "type": "VEC3"
        },
        {
            "bufferView": 2,
            "byteOffset": 14584,
            "componentType": 5126,
            "count": 601,
            "max": [
                1.0,
                0.9900000095367432
            ],
            "min": [
                0.0,
                0.0
            ],
            "type": "VEC2"
        },
        {
            "bufferView": 0,
            "byteOffset": 18576,
            "componentType": 5123,
            "count": 1596,
            "max": [
                1435
            ],
            "min": [
                0
            ],
            "type": "SCALAR"
        },
        {
            "bufferView": 1,
            "byteOffset": 58176,
            "componentType": 5126,
            "count": 1436,
            "max": [
                1.0,
                0.9997729063034058,
                0.9941089749336244
            ],
            "min": [
                -0.9999994039535524,
                -0.9997730255126952,
                -0.9941092133522034
            ],
            "type": "VEC3"
        },
        {
            "bufferView": 1,
            "byteOffset": 75408,
            "componentType": 5126,
            "count": 1436,
            "max": [
                0.6383451819419861,
                2.9955170154571539,
                1.258084058761597
            ],
            "min": [
                -2.638345003128052,
                -16.401830673217778,
                -29.258079528808599
            ],
            "type": "VEC3"
        },
        {
            "bufferView": 2,
            "byteOffset": 19392,
            "componentType": 5126,
            "count": 1436,
            "max": [
                0.875,
                1.0
            ],
            "min": [
                0.030079780146479608,
                -0.00027501583099365234
            ],
            "type": "VEC2"
        },
        {
            "bufferView": 0,
            "byteOffset": 21768,
            "componentType": 5123,
            "count": 1296,
            "max": [
                239
            ],
            "min": [
                0
            ],
            "type": "SCALAR"
        },
        {
            "bufferView": 1,
            "byteOffset": 92640,
            "componentType": 5126,
            "count": 240,
            "max": [
                0.9333773255348206,
                0.9992768168449402,
                0.9937074780464172
            ],
            "min": [
                -0.9333773255348206,
                -0.9992768168449402,
                -0.9937074780464172
            ],
            "type": "VEC3"
        },
        {
            "bufferView": 1,
            "byteOffset": 95520,
            "componentType": 5126,
            "count": 240,
            "max": [
                1.3545080423355105,
                2.395462989807129,
                5.582268238067627
            ],
            "min": [
                -1.3545080423355105,
                -2.395462989807129,
                -5.582268238067627
            ],
            "type": "VEC3"
        },
        {
            "bufferView": 2,
            "byteOffset": 30880,
            "componentType": 5126,
            "count": 240,
            "max": [
                0.7500001192092896,
                0.17447972297668458
            ],
            "min": [
                0.6372547745704651,
                0.12506920099258424
            ],
            "type": "VEC2"
        },
        {
            "bufferView": 0,
            "byteOffset": 24360,
            "componentType": 5123,
            "count": 432,
            "max": [
                371
            ],
            "min": [
                0
            ],
            "type": "SCALAR"
        },
        {
            "bufferView": 1,
            "byteOffset": 98400,
            "componentType": 5126,
            "count": 372,
            "max": [
                0.6771212220191956,
                0.986583411693573,
                0.9994717240333556
            ],
            "min": [
                -0.6771187782287598,
                -0.986583411693573,
                -0.9994717240333556
            ],
            "type": "VEC3"
        },
        {
            "bufferView": 1,
            "byteOffset": 102864,
            "componentType": 5126,
            "count": 372,
            "max": [
                -1.3818520307540894,
                2.2907938957214357,
                2.33392596244812
            ],
            "min": [
                -2.891977071762085,
                -2.2907938957214357,
                -2.33392596244812
            ],
            "type": "VEC3"
        },
        {
            "bufferView": 2,
            "byteOffset": 32800,
            "componentType": 5126,
            "count": 372,
            "max": [
                0.6181573271751404,
                0.392726480960846
            ],
            "min": [
                0.6015920042991638,
                0.2994455099105835
            ],
            "type": "VEC2"
        },
        {
            "bufferView": 0,
            "byteOffset": 25224,
            "componentType": 5123,
            "count": 360,
            "max": [
                311
            ],
            "min": [
                0
            ],
            "type": "SCALAR"
        },
        {
            "bufferView": 1,
            "byteOffset": 107328,
            "componentType": 5126,
            "count": 312,
            "max": [
                0.7561681270599365,
                0.9983289241790772,
                1.0
            ],
            "min": [
                -0.7561727166175842,
                -0.9983289241790772,
                -1.0
            ],
            "type": "VEC3"
        },
        {
            "bufferView": 1,
            "byteOffset": 111072,
            "componentType": 5126,
            "count": 312,
            "max": [
                -2.009993076324463,
                2.3687820434570314,
                0.8992812037467957
            ],
            "min": [
                -3.1425459384918219,
                -2.3687820434570314,
                -0.8992812037467957
            ],
            "type": "VEC3"
        },
        {
            "bufferView": 2,
            "byteOffset": 35776,
            "componentType": 5126,
            "count": 312,
            "max": [
                0.6057078838348389,
                0.4998723268508911
            ],
            "min": [
                0.5990735292434692,
                0.427104115486145
            ],
            "type": "VEC2"
        }
    ],
    "bufferViews": [
        {
            "buffer": 0,
            "byteOffset": 153088,
            "byteLength": 25944,
            "target": 34963
        },
        {
            "buffer": 0,
            "byteOffset": 0,
            "byteLength": 114816,
            "byteStride": 12,
            "target": 34962
        },
        {
            "buffer": 0,
            "byteOffset": 114816,
            "byteLength": 38272,
            "byteStride": 8,
            "target": 34962
        }
    ],
    "buffers": [
        {
            "byteLength": 179032,
            "uri": "data:application/octet-stream;base64,"
        }
    ]
}
